{
    "asset" : {
        "generator" : "Khronos glTF Blender I/O v3.3.32",
        "version" : "2.0"
    },
    "scene" : 0,
    "scenes" : [
        {
            "name" : "Scene",
            "nodes" : [
                0,
                1,
                2,
                3
            ]
        }
    ],
    "nodes" : [
        {
            "mesh" : 0,
            "name" : "Plane.004",
            "scale" : [
                -0.053724534809589386,
                -0.053724534809589386,
                -0.053724534809589386
            ],
            "translation" : [
                0.027012765407562256,
                0.010253391228616238,
                -0.15677058696746826
            ]
        },
        {
            "mesh" : 1,
            "name" : "keyb",
            "scale" : [
                1,
                0.5695136189460754,
                1
            ],
            "translation" : [
                0.0004105866246391088,
                -0.004904319066554308,
                0.09302830696105957
            ]
        },
        {
            "name" : "Empty"
        },
        {
            "mesh" : 2,
            "name" : "display",
            "rotation" : [
                -0.7687201499938965,
                0,
                0,
                0.6395852565765381
            ],
            "scale" : [
                1,
                0.5695136189460754,
                1
            ],
            "translation" : [
                0,
                0,
                -0.5993269681930542
            ]
        }
    ],
    "materials" : [
        {
            "doubleSided" : true,
            "name" : "Material.001",
            "pbrMetallicRoughness" : {
                "baseColorTexture" : {
                    "index" : 0
                },
                "metallicFactor" : 0,
                "roughnessFactor" : 0.5
            }
        },
        {
            "doubleSided" : true,
            "name" : "Material",
            "pbrMetallicRoughness" : {
                "baseColorFactor" : [
                    0.800000011920929,
                    0.800000011920929,
                    0.800000011920929,
                    1
                ],
                "roughnessFactor" : 0.5
            }
        },
        {
            "doubleSided" : true,
            "name" : "Material.002",
            "pbrMetallicRoughness" : {
                "baseColorFactor" : [
                    0.0010314254323020577,
                    0.0010314254323020577,
                    0.0010314254323020577,
                    1
                ],
                "metallicFactor" : 0,
                "roughnessFactor" : 0.5
            }
        },
        {
            "doubleSided" : true,
            "emissiveFactor" : [
                1,
                1,
                1
            ],
            "emissiveTexture" : {
                "index" : 1
            },
            "name" : "Material.003",
            "pbrMetallicRoughness" : {
                "baseColorFactor" : [
                    0,
                    0,
                    0,
                    1
                ]
            }
        }
    ],
    "meshes" : [
        {
            "name" : "Plane.005",
            "primitives" : [
                {
                    "attributes" : {
                        "POSITION" : 0,
                        "NORMAL" : 1,
                        "TEXCOORD_0" : 2
                    },
                    "indices" : 3,
                    "material" : 0
                }
            ]
        },
        {
            "name" : "Cube",
            "primitives" : [
                {
                    "attributes" : {
                        "POSITION" : 4,
                        "NORMAL" : 5,
                        "TEXCOORD_0" : 6
                    },
                    "indices" : 7,
                    "material" : 1
                },
                {
                    "attributes" : {
                        "POSITION" : 8,
                        "NORMAL" : 9,
                        "TEXCOORD_0" : 10
                    },
                    "indices" : 11
                }
            ]
        },
        {
            "name" : "Cube.001",
            "primitives" : [
                {
                    "attributes" : {
                        "POSITION" : 12,
                        "NORMAL" : 13,
                        "TEXCOORD_0" : 14
                    },
                    "indices" : 15,
                    "material" : 1
                },
                {
                    "attributes" : {
                        "POSITION" : 16,
                        "NORMAL" : 17,
                        "TEXCOORD_0" : 18
                    },
                    "indices" : 19,
                    "material" : 2
                },
                {
                    "attributes" : {
                        "POSITION" : 20,
                        "NORMAL" : 21,
                        "TEXCOORD_0" : 22
                    },
                    "indices" : 23,
                    "material" : 3
                }
            ]
        }
    ],
    "textures" : [
        {
            "sampler" : 0,
            "source" : 0
        },
        {
            "sampler" : 0,
            "source" : 1
        }
    ],
    "images" : [
        {
            "bufferView" : 4,
            "mimeType" : "image/png",
            "name" : "keyboard"
        },
        {
            "bufferView" : 25,
            "mimeType" : "image/png",
            "name" : "\u30b9\u30af\u30ea\u30fc\u30f3\u30b7\u30e7\u30c3\u30c8 2022-11-10 1.01.19"
        }
    ],
    "accessors" : [
        {
            "bufferView" : 0,
            "componentType" : 5126,
            "count" : 12284,
            "max" : [
                17.30449104309082,
                0.37142208218574524,
                6.620636940002441
            ],
            "min" : [
                -16.282901763916016,
                -0.37146857380867004,
                -6.067938327789307
            ],
            "type" : "VEC3"
        },
        {
            "bufferView" : 1,
            "componentType" : 5126,
            "count" : 12284,
            "type" : "VEC3"
        },
        {
            "bufferView" : 2,
            "componentType" : 5126,
            "count" : 12284,
            "type" : "VEC2"
        },
        {
            "bufferView" : 3,
            "componentType" : 5123,
            "count" : 36696,
            "type" : "SCALAR"
        },
        {
            "bufferView" : 5,
            "componentType" : 5126,
            "count" : 439,
            "max" : [
                0.9995893836021423,
                0.011568998917937279,
                0.6931346654891968
            ],
            "min" : [
                -1.000410556793213,
                -0.04209502786397934,
                -0.6989593505859375
            ],
            "type" : "VEC3"
        },
        {
            "bufferView" : 6,
            "componentType" : 5126,
            "count" : 439,
            "type" : "VEC3"
        },
        {
            "bufferView" : 7,
            "componentType" : 5126,
            "count" : 439,
            "type" : "VEC2"
        },
        {
            "bufferView" : 8,
            "componentType" : 5123,
            "count" : 1470,
            "type" : "SCALAR"
        },
        {
            "bufferView" : 9,
            "componentType" : 5126,
            "count" : 16,
            "max" : [
                0.7797645330429077,
                0.011568998917937279,
                -0.679455041885376
            ],
            "min" : [
                -0.780585765838623,
                -0.03204543888568878,
                -0.6989593505859375
            ],
            "type" : "VEC3"
        },
        {
            "bufferView" : 10,
            "componentType" : 5126,
            "count" : 16,
            "type" : "VEC3"
        },
        {
            "bufferView" : 11,
            "componentType" : 5126,
            "count" : 16,
            "type" : "VEC2"
        },
        {
            "bufferView" : 12,
            "componentType" : 5123,
            "count" : 30,
            "type" : "SCALAR"
        },
        {
            "bufferView" : 13,
            "componentType" : 5126,
            "count" : 162,
            "max" : [
                1,
                0.05019879341125488,
                1.3854899406433105
            ],
            "min" : [
                -1,
                -0.023575104773044586,
                -0.006604045629501343
            ],
            "type" : "VEC3"
        },
        {
            "bufferView" : 14,
            "componentType" : 5126,
            "count" : 162,
            "type" : "VEC3"
        },
        {
            "bufferView" : 15,
            "componentType" : 5126,
            "count" : 162,
            "type" : "VEC2"
        },
        {
            "bufferView" : 16,
            "componentType" : 5123,
            "count" : 570,
            "type" : "SCALAR"
        },
        {
            "bufferView" : 17,
            "componentType" : 5126,
            "count" : 28,
            "max" : [
                0.989848256111145,
                0.002957582473754883,
                1.3753381967544556
            ],
            "min" : [
                -0.989848256111145,
                0.002957582473754883,
                0.0035476982593536377
            ],
            "type" : "VEC3"
        },
        {
            "bufferView" : 18,
            "componentType" : 5126,
            "count" : 28,
            "type" : "VEC3"
        },
        {
            "bufferView" : 19,
            "componentType" : 5126,
            "count" : 28,
            "type" : "VEC2"
        },
        {
            "bufferView" : 20,
            "componentType" : 5123,
            "count" : 84,
            "type" : "SCALAR"
        },
        {
            "bufferView" : 21,
            "componentType" : 5126,
            "count" : 4,
            "max" : [
                0.9648687839508057,
                0.002957582473754883,
                1.3428678512573242
            ],
            "min" : [
                -0.96486896276474,
                0.002957582473754883,
                0.13678127527236938
            ],
            "type" : "VEC3"
        },
        {
            "bufferView" : 22,
            "componentType" : 5126,
            "count" : 4,
            "type" : "VEC3"
        },
        {
            "bufferView" : 23,
            "componentType" : 5126,
            "count" : 4,
            "type" : "VEC2"
        },
        {
            "bufferView" : 24,
            "componentType" : 5123,
            "count" : 6,
            "type" : "SCALAR"
        }
    ],
    "bufferViews" : [
        {
            "buffer" : 0,
            "byteLength" : 147408,
            "byteOffset" : 0,
            "target" : 34962
        },
        {
            "buffer" : 0,
            "byteLength" : 147408,
            "byteOffset" : 147408,
            "target" : 34962
        },
        {
            "buffer" : 0,
            "byteLength" : 98272,
            "byteOffset" : 294816,
            "target" : 34962
        },
        {
            "buffer" : 0,
            "byteLength" : 73392,
            "byteOffset" : 393088,
            "target" : 34963
        },
        {
            "buffer" : 0,
            "byteLength" : 242037,
            "byteOffset" : 466480
        },
        {
            "buffer" : 0,
            "byteLength" : 5268,
            "byteOffset" : 708520,
            "target" : 34962
        },
        {
            "buffer" : 0,
            "byteLength" : 5268,
            "byteOffset" : 713788,
            "target" : 34962
        },
        {
            "buffer" : 0,
            "byteLength" : 3512,
            "byteOffset" : 719056,
            "target" : 34962
        },
        {
            "buffer" : 0,
            "byteLength" : 2940,
            "byteOffset" : 722568,
            "target" : 34963
        },
        {
            "buffer" : 0,
            "byteLength" : 192,
            "byteOffset" : 725508,
            "target" : 34962
        },
        {
            "buffer" : 0,
            "byteLength" : 192,
            "byteOffset" : 725700,
            "target" : 34962
        },
        {
            "buffer" : 0,
            "byteLength" : 128,
            "byteOffset" : 725892,
            "target" : 34962
        },
        {
            "buffer" : 0,
            "byteLength" : 60,
            "byteOffset" : 726020,
            "target" : 34963
        },
        {
            "buffer" : 0,
            "byteLength" : 1944,
            "byteOffset" : 726080,
            "target" : 34962
        },
        {
            "buffer" : 0,
            "byteLength" : 1944,
            "byteOffset" : 728024,
            "target" : 34962
        },
        {
            "buffer" : 0,
            "byteLength" : 1296,
            "byteOffset" : 729968,
            "target" : 34962
        },
        {
            "buffer" : 0,
            "byteLength" : 1140,
            "byteOffset" : 731264,
            "target" : 34963
        },
        {
            "buffer" : 0,
            "byteLength" : 336,
            "byteOffset" : 732404,
            "target" : 34962
        },
        {
            "buffer" : 0,
            "byteLength" : 336,
            "byteOffset" : 732740,
            "target" : 34962
        },
        {
            "buffer" : 0,
            "byteLength" : 224,
            "byteOffset" : 733076,
            "target" : 34962
        },
        {
            "buffer" : 0,
            "byteLength" : 168,
            "byteOffset" : 733300,
            "target" : 34963
        },
        {
            "buffer" : 0,
            "byteLength" : 48,
            "byteOffset" : 733468,
            "target" : 34962
        },
        {
            "buffer" : 0,
            "byteLength" : 48,
            "byteOffset" : 733516,
            "target" : 34962
        },
        {
            "buffer" : 0,
            "byteLength" : 32,
            "byteOffset" : 733564,
            "target" : 34962
        },
        {
            "buffer" : 0,
            "byteLength" : 12,
            "byteOffset" : 733596,
            "target" : 34963
        },
        {
            "buffer" : 0,
            "byteLength" : 1020873,
            "byteOffset" : 733608
        }
    ],
    "samplers" : [
        {
            "magFilter" : 9729,
            "minFilter" : 9987
        }
    ],
    "buffers" : [
        {
            "byteLength" : 1754484,
            "uri" : "data:application/octet-stream;base64,"
        }
    ]
}
